# xmcd
#
# Track frame offsets:
#	150
#	16800
#	32897
#	50707
#	68467
#	81792
#	99050
#	112412
#	134125
#	148787
#	168577
#	184485
#	196892
#	213965
#	227382
#	246955
#	265370
#	282980
#	301280
#	316467
#
# Disc length: 4417
#
# Revision: 1
# Processed by: cddbd v1.5.1PL0 Copyright (c) Steve Scherf et al.
# Submitted via: FreeRIP 2.90 
# Normalized: r0:DSETVAR1,TDELIM( - )
#
DISCID=29113f14
DTITLE=Various Artist - Country Today
DYEAR=1900
DGENRE=Country
TTITLE0=Gretchen Wilson - Redneck Woman
TTITLE1=Brooks and Dunn - You Can't Take The Honky Tonk Out Of The Girl
TTITLE2=Patty Loveless - I Wanna Believe
TTITLE3=Toby Kieth - I Love This Bar
TTITLE4=Gary Allan - Guys Like Me
TTITLE5=Alan Jackson - It's Five O'Clock Somewhere
TTITLE6=Nanci Griffith - You Asked Me To
TTITLE7=Kenny Chesney - When The Sun Goes Down
TTITLE8=Jill King - 98.6 Degrees And Fallin'
TTITLE9=Brad Paisley - Hold Me In Your Arms
TTITLE10=Tanya Tucker - I Can Do That
TTITLE11=George Strait - Honkytonkville
TTITLE12=Sara Evans - Suds In The Bucket
TTITLE13=Rick Trevino - Overnight Success
TTITLE14=Chip Taylor and Carrie Rodriguez - Dirty Little Texas Story
TTITLE15=Rodney Crowell - Still Learning How To Fly
TTITLE16=Vince Gill - She Never Makes Me Cry
TTITLE17=Julie Roberts - Break Down Here
TTITLE18=Montgomery Gentry - If You Ever Stop Loving Me
TTITLE19=Marty Stuart and Merle Haggard - Farmer's Blues
EXTD=
EXTT0=
EXTT1=
EXTT2=
EXTT3=
EXTT4=
EXTT5=
EXTT6=
EXTT7=
EXTT8=
EXTT9=
EXTT10=
EXTT11=
EXTT12=
EXTT13=
EXTT14=
EXTT15=
EXTT16=
EXTT17=
EXTT18=
EXTT19=
PLAYORDER=
